<?xml version="1.0" encoding="UTF-8" standalone="no"?>
<svg
   xmlns:dc="http://purl.org/dc/elements/1.1/"
   xmlns:cc="http://creativecommons.org/ns#"
   xmlns:rdf="http://www.w3.org/1999/02/22-rdf-syntax-ns#"
   xmlns:svg="http://www.w3.org/2000/svg"
   xmlns="http://www.w3.org/2000/svg"
   viewBox="0 0 246.91333 78.792801"
   height="78.792801"
   width="246.91333"
   xml:space="preserve"
   id="svg2"
   version="1.1"><metadata
     id="metadata8"><rdf:RDF><cc:Work
         rdf:about=""><dc:format>image/svg+xml</dc:format><dc:type
           rdf:resource="http://purl.org/dc/dcmitype/StillImage" /></cc:Work></rdf:RDF></metadata><defs
     id="defs6"><clipPath
       id="clipPath18"
       clipPathUnits="userSpaceOnUse"><path
         id="path16"
         d="M 6.988,59.095 0,55.498 38.126,36.238 c 2.809,-1.418 2.784,-5.437 -0.043,-6.821 v 0 L 14.028,17.645 14.054,10.667 41.403,24.299 c 7.191,3.585 7.211,13.838 0.035,17.451 v 0 z" /></clipPath><linearGradient
       id="linearGradient32"
       spreadMethod="pad"
       gradientTransform="matrix(0,-48.427849,-48.427849,0,23.404175,59.094601)"
       gradientUnits="userSpaceOnUse"
       y2="0"
       x2="1"
       y1="0"
       x1="0"><stop
         id="stop24"
         offset="0"
         style="stop-opacity:1;stop-color:#4b97d2" /><stop
         id="stop26"
         offset="0.131059"
         style="stop-opacity:1;stop-color:#4b97d2" /><stop
         id="stop28"
         offset="0.99497"
         style="stop-opacity:1;stop-color:#ceccd2" /><stop
         id="stop30"
         offset="1"
         style="stop-opacity:1;stop-color:#ceccd2" /></linearGradient><clipPath
       id="clipPath42"
       clipPathUnits="userSpaceOnUse"><path
         id="path40"
         d="M 0,59.095 H 185.185 V 0 H 0 Z" /></clipPath><clipPath
       id="clipPath54"
       clipPathUnits="userSpaceOnUse"><path
         id="path52"
         d="m 7.04,0 34.43,17.262 c 3.273,1.64 5.338,4.987 5.338,8.647 v 0 6.945 c 0,0 -0.002,-0.01 -0.006,-0.027 v 0 c -0.07,-3.4 -1.869,-6.768 -5.399,-8.528 v 0 L 14.054,10.667 14.028,17.645 14.011,41.381 7.04,44.861 Z" /></clipPath><linearGradient
       id="linearGradient68"
       spreadMethod="pad"
       gradientTransform="matrix(39.768417,0,0,-39.768417,7.0399299,22.43026)"
       gradientUnits="userSpaceOnUse"
       y2="0"
       x2="1"
       y1="0"
       x1="0"><stop
         id="stop60"
         offset="0"
         style="stop-opacity:1;stop-color:#4b97d2" /><stop
         id="stop62"
         offset="0.0871194"
         style="stop-opacity:1;stop-color:#4b97d2" /><stop
         id="stop64"
         offset="0.869543"
         style="stop-opacity:1;stop-color:#175092" /><stop
         id="stop66"
         offset="1"
         style="stop-opacity:1;stop-color:#175092" /></linearGradient><clipPath
       id="clipPath78"
       clipPathUnits="userSpaceOnUse"><path
         id="path76"
         d="M 0,59.095 H 185.185 V 0 H 0 Z" /></clipPath></defs><g
     transform="matrix(1.3333333,0,0,-1.3333333,0,78.7928)"
     id="g10"><g
       id="g12"><g
         clip-path="url(#clipPath18)"
         id="g14"><g
           id="g20"><g
             id="g22"><path
               id="path34"
               style="fill:url(#linearGradient32);stroke:none"
               d="M 6.988,59.095 0,55.498 38.126,36.238 c 2.809,-1.418 2.784,-5.437 -0.043,-6.821 v 0 L 14.028,17.645 14.054,10.667 41.403,24.299 c 7.191,3.585 7.211,13.838 0.035,17.451 v 0 z" /></g></g></g></g><g
       id="g36"><g
         clip-path="url(#clipPath42)"
         id="g38"><g
           transform="translate(38.1277,36.2376)"
           id="g44"><path
             id="path46"
             style="fill:#175092;fill-opacity:1;fill-rule:nonzero;stroke:none"
             d="m 0,0 -38.127,19.26 v -51.849 l 7.039,-3.649 V 8.623 L -1.783,-5.956 c 0.611,-0.242 0.994,-0.646 1.212,-1.12 l 0.527,0.26 C 2.781,-5.436 2.807,-1.418 0,0" /></g></g></g><g
       id="g48"><g
         clip-path="url(#clipPath54)"
         id="g50"><g
           id="g56"><g
             id="g58"><path
               id="path70"
               style="fill:url(#linearGradient68);stroke:none"
               d="m 7.04,0 34.43,17.262 c 3.273,1.64 5.338,4.987 5.338,8.647 v 0 6.945 c 0,0 -0.002,-0.01 -0.006,-0.027 v 0 c -0.07,-3.4 -1.869,-6.768 -5.399,-8.528 v 0 L 14.054,10.667 14.028,17.645 14.011,41.381 7.04,44.861 Z" /></g></g></g></g><g
       id="g72"><g
         clip-path="url(#clipPath78)"
         id="g74"><g
           transform="translate(68.2273,26.6688)"
           id="g80"><path
             id="path82"
             style="fill:#175092;fill-opacity:1;fill-rule:nonzero;stroke:none"
             d="m 0,0 h 2.9 c 1.288,0 2.487,0.131 3.597,0.394 1.109,0.262 2.07,0.698 2.882,1.306 0.811,0.609 1.449,1.408 1.914,2.399 0.466,0.99 0.699,2.201 0.699,3.633 0,1.24 -0.233,2.32 -0.699,3.239 -0.465,0.918 -1.091,1.676 -1.879,2.273 C 8.627,13.84 7.702,14.288 6.64,14.587 5.578,14.885 4.462,15.034 3.293,15.034 H 0 Z m -5.584,20.188 h 8.376 c 2.029,0 3.956,-0.227 5.781,-0.68 1.826,-0.453 3.419,-1.187 4.779,-2.201 1.36,-1.015 2.44,-2.333 3.239,-3.955 0.8,-1.623 1.199,-3.592 1.199,-5.906 0,-2.053 -0.388,-3.861 -1.163,-5.424 C 15.851,0.459 14.807,-0.854 13.495,-1.915 12.182,-2.977 10.667,-3.782 8.949,-4.331 7.231,-4.88 5.429,-5.154 3.544,-5.154 h -9.128 z" /></g><g
           transform="translate(99.2278,32.1815)"
           id="g84"><path
             id="path86"
             style="fill:#175092;fill-opacity:1;fill-rule:nonzero;stroke:none"
             d="M 0,0 C 0.023,0.907 -0.274,1.682 -0.895,2.327 -1.516,2.971 -2.315,3.293 -3.293,3.293 -3.89,3.293 -4.415,3.197 -4.868,3.006 -5.321,2.815 -5.709,2.571 -6.031,2.273 -6.354,1.974 -6.604,1.628 -6.783,1.235 -6.962,0.841 -7.064,0.429 -7.087,0 Z m 4.546,-7.66 c -0.859,-1.098 -1.945,-1.945 -3.257,-2.542 -1.312,-0.596 -2.673,-0.895 -4.081,-0.895 -1.336,0 -2.595,0.215 -3.776,0.644 -1.182,0.43 -2.208,1.044 -3.078,1.844 -0.872,0.799 -1.558,1.76 -2.059,2.882 -0.501,1.121 -0.752,2.373 -0.752,3.758 0,1.384 0.251,2.636 0.752,3.759 0.501,1.121 1.187,2.081 2.059,2.881 0.87,0.799 1.896,1.414 3.078,1.843 1.181,0.43 2.44,0.645 3.776,0.645 1.241,0 2.368,-0.215 3.383,-0.645 C 1.605,6.085 2.464,5.47 3.168,4.671 3.872,3.871 4.415,2.911 4.797,1.79 5.178,0.667 5.369,-0.585 5.369,-1.969 V -3.651 H -7.087 c 0.214,-1.027 0.68,-1.844 1.396,-2.452 0.716,-0.609 1.598,-0.913 2.649,-0.913 0.882,0 1.628,0.197 2.237,0.591 0.608,0.393 1.139,0.9 1.593,1.521 z" /></g><g
           transform="translate(119.6033,30.2122)"
           id="g88"><path
             id="path90"
             style="fill:#175092;fill-opacity:1;fill-rule:nonzero;stroke:none"
             d="M 0,0 C 0,1.312 -0.376,2.375 -1.128,3.186 -1.879,3.997 -2.935,4.403 -4.296,4.403 -5.655,4.403 -6.711,3.997 -7.463,3.186 -8.215,2.375 -8.591,1.312 -8.591,0 c 0,-1.312 0.376,-2.375 1.128,-3.186 0.752,-0.811 1.808,-1.216 3.167,-1.216 1.361,0 2.417,0.405 3.168,1.216 C -0.376,-2.375 0,-1.312 0,0 M 4.939,-8.698 H 0 v 2.291 h -0.072 c -0.214,-0.31 -0.495,-0.626 -0.841,-0.948 -0.346,-0.323 -0.752,-0.615 -1.217,-0.877 -0.465,-0.264 -0.978,-0.477 -1.539,-0.645 -0.561,-0.166 -1.14,-0.25 -1.736,-0.25 -1.289,0 -2.458,0.22 -3.508,0.662 -1.05,0.441 -1.951,1.062 -2.702,1.861 -0.752,0.799 -1.331,1.748 -1.737,2.846 -0.405,1.097 -0.608,2.302 -0.608,3.615 0,1.217 0.184,2.38 0.555,3.49 0.369,1.11 0.895,2.094 1.574,2.953 0.681,0.859 1.51,1.545 2.489,2.058 0.977,0.513 2.087,0.77 3.328,0.77 1.122,0 2.166,-0.173 3.132,-0.519 0.967,-0.346 1.76,-0.937 2.381,-1.772 h 0.071 v 11.526 h 5.369 z" /></g><g
           transform="translate(136.4119,29.139)"
           id="g92"><path
             id="path94"
             style="fill:#175092;fill-opacity:1;fill-rule:nonzero;stroke:none"
             d="M 0,0 C -0.407,0 -0.914,-0.018 -1.521,-0.054 -2.13,-0.09 -2.715,-0.191 -3.275,-0.358 -3.836,-0.525 -4.314,-0.776 -4.708,-1.11 c -0.393,-0.334 -0.59,-0.8 -0.59,-1.396 0,-0.644 0.274,-1.122 0.823,-1.432 0.549,-0.31 1.121,-0.465 1.719,-0.465 0.524,0 1.031,0.071 1.521,0.215 0.488,0.143 0.924,0.345 1.306,0.608 0.382,0.263 0.685,0.596 0.913,1.002 0.226,0.406 0.34,0.883 0.34,1.432 L 1.324,0 Z M 1.324,-5.441 H 1.252 c -0.596,-0.931 -1.39,-1.6 -2.38,-2.005 -0.991,-0.405 -2.035,-0.608 -3.132,-0.608 -0.811,0 -1.593,0.114 -2.344,0.34 -0.752,0.226 -1.415,0.567 -1.987,1.02 -0.573,0.453 -1.027,1.014 -1.36,1.682 -0.335,0.668 -0.502,1.444 -0.502,2.327 0,1.002 0.185,1.849 0.555,2.541 0.37,0.692 0.871,1.265 1.503,1.719 0.633,0.453 1.354,0.805 2.166,1.056 0.811,0.25 1.652,0.435 2.523,0.555 0.872,0.119 1.742,0.19 2.614,0.214 0.871,0.024 1.676,0.036 2.416,0.036 0,0.954 -0.34,1.712 -1.02,2.273 -0.68,0.561 -1.486,0.841 -2.416,0.841 -0.884,0 -1.689,-0.185 -2.417,-0.555 -0.728,-0.37 -1.378,-0.877 -1.95,-1.521 l -2.864,2.935 c 1.002,0.931 2.171,1.629 3.508,2.094 1.336,0.465 2.72,0.698 4.152,0.698 1.575,0 2.87,-0.197 3.884,-0.591 C 3.215,9.217 4.027,8.638 4.635,7.875 5.243,7.111 5.667,6.174 5.906,5.064 6.144,3.955 6.264,2.672 6.264,1.217 v -8.842 h -4.94 z" /></g><path
           id="path96"
           style="fill:#175092;fill-opacity:1;fill-rule:nonzero;stroke:none"
           d="m 144.715,48.575 h 5.369 V 21.514 h -5.369 z" /><g
           transform="translate(168.6121,21.5145)"
           id="g98"><path
             id="path100"
             style="fill:#175092;fill-opacity:1;fill-rule:nonzero;stroke:none"
             d="M 0,0 H -5.154 V 2.362 H -5.226 C -5.417,2.028 -5.662,1.694 -5.96,1.36 -6.258,1.025 -6.622,0.728 -7.051,0.465 -7.481,0.202 -7.97,-0.012 -8.519,-0.179 c -0.549,-0.167 -1.146,-0.251 -1.79,-0.251 -1.36,0 -2.464,0.209 -3.311,0.627 -0.847,0.417 -1.503,0.996 -1.968,1.736 -0.466,0.739 -0.776,1.61 -0.931,2.613 -0.156,1.002 -0.233,2.088 -0.233,3.257 v 9.593 h 5.37 V 8.877 c 0,-0.501 0.017,-1.02 0.053,-1.557 0.036,-0.537 0.143,-1.032 0.322,-1.486 0.179,-0.453 0.453,-0.823 0.823,-1.109 0.37,-0.287 0.901,-0.43 1.594,-0.43 0.692,0 1.252,0.125 1.682,0.376 0.429,0.251 0.757,0.585 0.984,1.002 0.227,0.418 0.376,0.889 0.447,1.414 0.072,0.525 0.108,1.074 0.108,1.647 v 8.662 H 0 Z" /></g><g
           transform="translate(181.2122,33.7918)"
           id="g102"><path
             id="path104"
             style="fill:#175092;fill-opacity:1;fill-rule:nonzero;stroke:none"
             d="m 0,0 c -0.788,0.979 -1.826,1.468 -3.115,1.468 -0.453,0 -0.895,-0.108 -1.323,-0.322 -0.431,-0.215 -0.645,-0.585 -0.645,-1.11 0,-0.43 0.221,-0.746 0.662,-0.949 0.441,-0.202 1.002,-0.381 1.683,-0.536 0.68,-0.156 1.407,-0.323 2.183,-0.502 0.775,-0.178 1.503,-0.459 2.183,-0.841 0.681,-0.382 1.241,-0.901 1.683,-1.557 0.441,-0.656 0.662,-1.533 0.662,-2.631 0,-1.122 -0.245,-2.046 -0.734,-2.774 -0.489,-0.728 -1.115,-1.312 -1.879,-1.754 -0.764,-0.442 -1.623,-0.751 -2.577,-0.93 -0.955,-0.179 -1.898,-0.269 -2.828,-0.269 -1.217,0 -2.447,0.174 -3.687,0.519 -1.241,0.346 -2.291,0.96 -3.15,1.843 l 3.257,3.616 c 0.501,-0.621 1.057,-1.092 1.665,-1.414 0.608,-0.322 1.318,-0.483 2.129,-0.483 0.621,0 1.182,0.089 1.683,0.268 0.502,0.179 0.752,0.507 0.752,0.984 0,0.454 -0.221,0.793 -0.662,1.021 -0.442,0.226 -1.003,0.416 -1.683,0.572 -0.68,0.156 -1.408,0.323 -2.183,0.501 -0.776,0.179 -1.503,0.448 -2.184,0.806 -0.68,0.358 -1.241,0.865 -1.683,1.521 -0.441,0.656 -0.662,1.533 -0.662,2.631 0,1.026 0.209,1.909 0.627,2.649 0.417,0.739 0.966,1.348 1.647,1.825 0.68,0.477 1.461,0.829 2.344,1.056 0.882,0.227 1.777,0.34 2.685,0.34 1.145,0 2.302,-0.167 3.472,-0.501 1.169,-0.334 2.159,-0.93 2.97,-1.79 z" /></g><g
           transform="translate(63.2356,16.137)"
           id="g106"><path
             id="path108"
             style="fill:#175092;fill-opacity:1;fill-rule:nonzero;stroke:none"
             d="M 0,0 H 0.804 V -2.463 H 3.881 V 0 H 4.686 V -5.934 H 3.881 v 2.715 H 0.804 V -5.934 H 0 Z" /></g><g
           transform="translate(69.2786,16.137)"
           id="g110"><path
             id="path112"
             style="fill:#175092;fill-opacity:1;fill-rule:nonzero;stroke:none"
             d="M 0,0 H 3.831 V -0.754 H 0.805 V -2.522 H 3.622 V -3.276 H 0.805 V -5.18 h 3.176 v -0.754 l -3.981,0 z" /></g><g
           transform="translate(77.5354,12.3739)"
           id="g114"><path
             id="path116"
             style="fill:#175092;fill-opacity:1;fill-rule:nonzero;stroke:none"
             d="M 0,0 -1.107,2.724 H -1.123 L -2.246,0 Z m -1.442,3.763 h 0.729 l 2.54,-5.934 H 0.888 l -0.595,1.467 h -2.825 l -0.586,-1.467 h -0.939 z" /></g><g
           transform="translate(79.9661,16.137)"
           id="g118"><path
             id="path120"
             style="fill:#175092;fill-opacity:1;fill-rule:nonzero;stroke:none"
             d="M 0,0 H 0.804 V -5.18 H 3.528 V -5.934 L 0,-5.934 Z" /></g><g
           transform="translate(85.3894,15.3826)"
           id="g122"><path
             id="path124"
             style="fill:#175092;fill-opacity:1;fill-rule:nonzero;stroke:none"
             d="M 0,0 H -1.912 V 0.754 H 2.715 V 0 H 0.804 V -5.18 H 0 Z" /></g><g
           transform="translate(88.7922,16.137)"
           id="g126"><path
             id="path128"
             style="fill:#175092;fill-opacity:1;fill-rule:nonzero;stroke:none"
             d="M 0,0 H 0.805 V -2.463 H 3.881 V 0 H 4.686 V -5.934 H 3.881 v 2.715 H 0.805 V -5.934 H 0 Z" /></g><g
           transform="translate(98.968,14.8543)"
           id="g130"><path
             id="path132"
             style="fill:#175092;fill-opacity:1;fill-rule:nonzero;stroke:none"
             d="m 0,0 c -0.167,0.219 -0.38,0.387 -0.638,0.503 -0.256,0.118 -0.521,0.176 -0.795,0.176 -0.335,0 -0.639,-0.062 -0.909,-0.188 -0.272,-0.126 -0.504,-0.298 -0.697,-0.516 -0.193,-0.217 -0.342,-0.474 -0.448,-0.766 -0.106,-0.293 -0.159,-0.608 -0.159,-0.943 0,-0.313 0.049,-0.609 0.151,-0.889 0.1,-0.28 0.245,-0.525 0.435,-0.737 0.19,-0.213 0.422,-0.381 0.696,-0.503 0.274,-0.124 0.584,-0.185 0.931,-0.185 0.34,0 0.64,0.07 0.897,0.21 0.256,0.139 0.474,0.335 0.654,0.587 L 0.796,-3.763 C 0.752,-3.824 0.673,-3.913 0.562,-4.027 0.45,-4.142 0.302,-4.256 0.118,-4.371 -0.067,-4.485 -0.29,-4.586 -0.549,-4.672 c -0.26,-0.087 -0.56,-0.13 -0.902,-0.13 -0.469,0 -0.891,0.09 -1.269,0.268 -0.378,0.179 -0.698,0.413 -0.964,0.704 -0.265,0.291 -0.468,0.619 -0.608,0.985 -0.139,0.366 -0.209,0.737 -0.209,1.111 0,0.457 0.075,0.88 0.226,1.269 0.151,0.389 0.362,0.724 0.633,1.007 0.27,0.281 0.597,0.5 0.976,0.658 0.38,0.156 0.799,0.235 1.258,0.235 0.39,0 0.775,-0.076 1.153,-0.227 C 0.121,1.057 0.43,0.825 0.671,0.512 Z" /></g><g
           transform="translate(103.8718,12.3739)"
           id="g134"><path
             id="path136"
             style="fill:#175092;fill-opacity:1;fill-rule:nonzero;stroke:none"
             d="M 0,0 -1.107,2.724 H -1.123 L -2.246,0 Z m -1.442,3.763 h 0.729 l 2.54,-5.934 H 0.888 l -0.595,1.467 h -2.825 l -0.586,-1.467 h -0.939 z" /></g><g
           transform="translate(107.1067,13.5218)"
           id="g138"><path
             id="path140"
             style="fill:#175092;fill-opacity:1;fill-rule:nonzero;stroke:none"
             d="M 0,0 H 1.057 C 1.212,0 1.368,0.013 1.521,0.038 1.675,0.063 1.812,0.109 1.932,0.177 2.052,0.244 2.149,0.339 2.221,0.466 2.294,0.592 2.33,0.754 2.33,0.956 2.33,1.157 2.294,1.321 2.221,1.446 2.149,1.572 2.052,1.669 1.932,1.735 1.812,1.802 1.675,1.849 1.521,1.874 1.368,1.899 1.212,1.911 1.057,1.911 H 0 Z M -0.804,2.615 H 1.282 C 1.662,2.615 1.976,2.564 2.221,2.46 2.468,2.357 2.662,2.226 2.804,2.066 2.947,1.907 3.046,1.729 3.102,1.53 3.158,1.332 3.186,1.141 3.186,0.956 3.186,0.766 3.152,0.583 3.084,0.407 3.018,0.23 2.922,0.072 2.795,-0.071 2.669,-0.214 2.516,-0.334 2.334,-0.431 2.153,-0.529 1.95,-0.589 1.727,-0.611 L 3.412,-3.319 H 2.405 L 0.897,-0.704 H 0 v -2.615 h -0.804 z" /></g><g
           transform="translate(111.2561,16.137)"
           id="g142"><path
             id="path144"
             style="fill:#175092;fill-opacity:1;fill-rule:nonzero;stroke:none"
             d="M 0,0 H 3.831 V -0.754 H 0.805 V -2.522 H 3.622 V -3.276 H 0.805 V -5.18 h 3.177 v -0.754 l -3.982,0 z" /></g><g
           transform="translate(118.5491,11.4437)"
           id="g146"><path
             id="path148"
             style="fill:#175092;fill-opacity:1;fill-rule:nonzero;stroke:none"
             d="m 0,0 c 0.146,-0.218 0.332,-0.378 0.558,-0.482 0.226,-0.104 0.46,-0.155 0.699,-0.155 0.135,0 0.271,0.02 0.411,0.063 0.14,0.041 0.267,0.105 0.382,0.188 0.115,0.084 0.208,0.187 0.281,0.311 0.072,0.122 0.108,0.265 0.108,0.427 0,0.229 -0.073,0.403 -0.218,0.523 C 2.076,0.996 1.896,1.096 1.681,1.178 1.466,1.259 1.231,1.337 0.977,1.413 0.723,1.488 0.488,1.593 0.273,1.727 0.058,1.861 -0.123,2.041 -0.268,2.267 -0.414,2.493 -0.485,2.8 -0.485,3.185 c 0,0.173 0.037,0.358 0.112,0.553 0.076,0.196 0.194,0.375 0.357,0.536 0.162,0.163 0.37,0.298 0.624,0.407 0.254,0.11 0.56,0.164 0.918,0.164 C 1.85,4.845 2.16,4.8 2.456,4.711 2.753,4.621 3.013,4.439 3.236,4.166 L 2.583,3.57 C 2.481,3.728 2.339,3.853 2.155,3.948 1.97,4.043 1.761,4.09 1.526,4.09 1.302,4.09 1.117,4.062 0.968,4.002 0.82,3.943 0.702,3.868 0.612,3.775 0.523,3.684 0.459,3.584 0.424,3.479 0.388,3.373 0.369,3.274 0.369,3.185 0.369,2.934 0.442,2.741 0.587,2.606 0.732,2.472 0.913,2.363 1.127,2.28 1.343,2.196 1.577,2.121 1.832,2.053 2.086,1.986 2.321,1.893 2.536,1.772 2.75,1.652 2.932,1.49 3.077,1.287 3.222,1.083 3.294,0.801 3.294,0.444 3.294,0.16 3.24,-0.098 3.131,-0.327 3.022,-0.557 2.875,-0.75 2.69,-0.906 2.506,-1.062 2.289,-1.182 2.037,-1.266 1.786,-1.35 1.517,-1.392 1.232,-1.392 c -0.379,0 -0.74,0.067 -1.081,0.202 -0.341,0.134 -0.611,0.34 -0.813,0.619 z" /></g><g
           transform="translate(124.2649,12.7337)"
           id="g150"><path
             id="path152"
             style="fill:#175092;fill-opacity:1;fill-rule:nonzero;stroke:none"
             d="m 0,0 -2.246,3.403 h 1.032 L 0.403,0.797 2.071,3.403 H 3.052 L 0.806,0 V -2.531 H 0 Z" /></g><g
           transform="translate(128.0042,11.4437)"
           id="g154"><path
             id="path156"
             style="fill:#175092;fill-opacity:1;fill-rule:nonzero;stroke:none"
             d="m 0,0 c 0.146,-0.218 0.332,-0.378 0.558,-0.482 0.226,-0.104 0.46,-0.155 0.699,-0.155 0.135,0 0.271,0.02 0.411,0.063 0.14,0.041 0.267,0.105 0.382,0.188 0.115,0.084 0.208,0.187 0.281,0.311 0.072,0.122 0.108,0.265 0.108,0.427 0,0.229 -0.073,0.403 -0.218,0.523 C 2.076,0.996 1.896,1.096 1.681,1.178 1.466,1.259 1.231,1.337 0.977,1.413 0.723,1.488 0.488,1.593 0.273,1.727 0.058,1.861 -0.123,2.041 -0.268,2.267 -0.414,2.493 -0.485,2.8 -0.485,3.185 c 0,0.173 0.037,0.358 0.112,0.553 0.076,0.196 0.194,0.375 0.357,0.536 0.162,0.163 0.37,0.298 0.624,0.407 0.254,0.11 0.56,0.164 0.918,0.164 C 1.85,4.845 2.16,4.8 2.456,4.711 2.753,4.621 3.013,4.439 3.236,4.166 L 2.583,3.57 C 2.481,3.728 2.339,3.853 2.155,3.948 1.97,4.043 1.761,4.09 1.526,4.09 1.302,4.09 1.117,4.062 0.968,4.002 0.82,3.943 0.702,3.868 0.612,3.775 0.523,3.684 0.459,3.584 0.424,3.479 0.388,3.373 0.369,3.274 0.369,3.185 0.369,2.934 0.442,2.741 0.587,2.606 0.732,2.472 0.913,2.363 1.127,2.28 1.343,2.196 1.577,2.121 1.832,2.053 2.086,1.986 2.321,1.893 2.536,1.772 2.75,1.652 2.932,1.49 3.077,1.287 3.222,1.083 3.294,0.801 3.294,0.444 3.294,0.16 3.24,-0.098 3.131,-0.327 3.022,-0.557 2.875,-0.75 2.69,-0.906 2.506,-1.062 2.289,-1.182 2.037,-1.266 1.786,-1.35 1.517,-1.392 1.232,-1.392 c -0.379,0 -0.74,0.067 -1.081,0.202 -0.341,0.134 -0.611,0.34 -0.813,0.619 z" /></g><g
           transform="translate(133.5618,15.3826)"
           id="g158"><path
             id="path160"
             style="fill:#175092;fill-opacity:1;fill-rule:nonzero;stroke:none"
             d="M 0,0 H -1.912 V 0.754 H 2.716 V 0 H 0.805 V -5.18 H 0 Z" /></g><g
           transform="translate(136.9651,16.137)"
           id="g162"><path
             id="path164"
             style="fill:#175092;fill-opacity:1;fill-rule:nonzero;stroke:none"
             d="M 0,0 H 3.831 V -0.754 H 0.804 V -2.522 H 3.621 V -3.276 H 0.804 V -5.18 h 3.177 v -0.754 l -3.981,0 z" /></g><g
           transform="translate(141.8601,16.137)"
           id="g166"><path
             id="path168"
             style="fill:#175092;fill-opacity:1;fill-rule:nonzero;stroke:none"
             d="M 0,0 H 1.198 L 3.084,-4.492 H 3.118 L 4.988,0 H 6.186 V -5.934 H 5.382 v 4.878 H 5.364 L 3.362,-5.934 H 2.825 L 0.822,-1.056 H 0.804 V -5.934 H 0 Z" /></g><g
           transform="translate(149.5208,11.4437)"
           id="g170"><path
             id="path172"
             style="fill:#175092;fill-opacity:1;fill-rule:nonzero;stroke:none"
             d="m 0,0 c 0.146,-0.218 0.332,-0.378 0.558,-0.482 0.226,-0.104 0.459,-0.155 0.699,-0.155 0.135,0 0.271,0.02 0.411,0.063 0.14,0.041 0.267,0.105 0.382,0.188 0.115,0.084 0.208,0.187 0.28,0.311 0.073,0.122 0.109,0.265 0.109,0.427 0,0.229 -0.073,0.403 -0.218,0.523 C 2.076,0.996 1.896,1.096 1.681,1.178 1.466,1.259 1.231,1.337 0.977,1.413 0.723,1.488 0.488,1.593 0.273,1.727 0.058,1.861 -0.123,2.041 -0.269,2.267 -0.414,2.493 -0.485,2.8 -0.485,3.185 c 0,0.173 0.037,0.358 0.112,0.553 0.076,0.196 0.194,0.375 0.357,0.536 0.162,0.163 0.37,0.298 0.624,0.407 0.254,0.11 0.56,0.164 0.918,0.164 C 1.85,4.845 2.16,4.8 2.456,4.711 2.753,4.621 3.013,4.439 3.236,4.166 L 2.583,3.57 C 2.481,3.728 2.339,3.853 2.155,3.948 1.97,4.043 1.761,4.09 1.526,4.09 1.302,4.09 1.117,4.062 0.968,4.002 0.82,3.943 0.702,3.868 0.612,3.775 0.523,3.684 0.459,3.584 0.423,3.479 0.388,3.373 0.369,3.274 0.369,3.185 0.369,2.934 0.442,2.741 0.587,2.606 0.732,2.472 0.913,2.363 1.127,2.28 1.343,2.196 1.577,2.121 1.832,2.053 2.086,1.986 2.32,1.893 2.536,1.772 2.75,1.652 2.932,1.49 3.077,1.287 3.222,1.083 3.294,0.801 3.294,0.444 3.294,0.16 3.239,-0.098 3.131,-0.327 3.022,-0.557 2.875,-0.75 2.69,-0.906 2.506,-1.062 2.289,-1.182 2.037,-1.266 1.786,-1.35 1.517,-1.392 1.232,-1.392 c -0.379,0 -0.74,0.067 -1.081,0.202 -0.341,0.134 -0.611,0.34 -0.814,0.619 z" /></g><g
           transform="translate(161.0549,13.5218)"
           id="g174"><path
             id="path176"
             style="fill:#175092;fill-opacity:1;fill-rule:nonzero;stroke:none"
             d="m 0,0 v -2.925 c -0.145,-0.09 -0.31,-0.168 -0.494,-0.235 -0.185,-0.067 -0.377,-0.124 -0.574,-0.172 -0.199,-0.047 -0.4,-0.082 -0.604,-0.105 -0.204,-0.021 -0.396,-0.033 -0.574,-0.033 -0.503,0 -0.952,0.084 -1.346,0.251 -0.394,0.169 -0.727,0.394 -0.997,0.679 -0.271,0.285 -0.478,0.617 -0.62,0.994 -0.143,0.377 -0.214,0.775 -0.214,1.194 0,0.442 0.076,0.852 0.23,1.233 0.154,0.38 0.366,0.709 0.637,0.989 0.271,0.279 0.597,0.499 0.977,0.658 0.38,0.159 0.796,0.239 1.249,0.239 0.548,0 0.994,-0.069 1.341,-0.205 0.346,-0.138 0.636,-0.327 0.871,-0.567 L -0.687,1.383 C -0.933,1.619 -1.193,1.781 -1.467,1.874 -1.741,1.966 -2.029,2.012 -2.33,2.012 -2.67,2.012 -2.979,1.949 -3.252,1.824 -3.526,1.697 -3.761,1.529 -3.956,1.316 -4.152,1.104 -4.303,0.854 -4.409,0.566 -4.515,0.278 -4.568,-0.027 -4.568,-0.352 c 0,-0.335 0.058,-0.647 0.176,-0.935 0.117,-0.287 0.28,-0.537 0.486,-0.75 0.206,-0.213 0.449,-0.378 0.729,-0.498 0.28,-0.12 0.584,-0.18 0.913,-0.18 0.285,0 0.555,0.026 0.809,0.079 0.255,0.054 0.472,0.13 0.651,0.231 v 1.651 H -2.121 V 0 Z" /></g><g
           transform="translate(163.1584,13.5218)"
           id="g178"><path
             id="path180"
             style="fill:#175092;fill-opacity:1;fill-rule:nonzero;stroke:none"
             d="M 0,0 H 1.056 C 1.212,0 1.368,0.013 1.521,0.038 1.675,0.063 1.812,0.109 1.932,0.177 2.052,0.244 2.149,0.339 2.221,0.466 2.294,0.592 2.33,0.754 2.33,0.956 2.33,1.157 2.294,1.321 2.221,1.446 2.149,1.572 2.052,1.669 1.932,1.735 1.812,1.802 1.675,1.849 1.521,1.874 1.368,1.899 1.212,1.911 1.056,1.911 H 0 Z M -0.805,2.615 H 1.282 C 1.662,2.615 1.976,2.564 2.221,2.46 2.468,2.357 2.662,2.226 2.804,2.066 2.947,1.907 3.046,1.729 3.102,1.53 3.157,1.332 3.186,1.141 3.186,0.956 3.186,0.766 3.152,0.583 3.084,0.407 3.018,0.23 2.922,0.072 2.795,-0.071 2.669,-0.214 2.516,-0.334 2.334,-0.431 2.153,-0.529 1.95,-0.589 1.727,-0.611 L 3.412,-3.319 H 2.405 L 0.897,-0.704 H 0 v -2.615 h -0.805 z" /></g><g
           transform="translate(170.032,10.8065)"
           id="g182"><path
             id="path184"
             style="fill:#175092;fill-opacity:1;fill-rule:nonzero;stroke:none"
             d="M 0,0 C 0.341,0 0.648,0.063 0.922,0.189 1.195,0.314 1.431,0.483 1.626,0.695 1.822,0.908 1.972,1.158 2.08,1.446 2.185,1.733 2.238,2.04 2.238,2.364 2.238,2.688 2.185,2.994 2.08,3.282 1.972,3.569 1.822,3.819 1.626,4.032 1.431,4.245 1.195,4.413 0.922,4.539 0.648,4.665 0.341,4.727 0,4.727 -0.34,4.727 -0.648,4.665 -0.922,4.539 -1.196,4.413 -1.431,4.245 -1.626,4.032 -1.821,3.819 -1.973,3.569 -2.079,3.282 -2.185,2.994 -2.238,2.688 -2.238,2.364 -2.238,2.04 -2.185,1.733 -2.079,1.446 -1.973,1.158 -1.821,0.908 -1.626,0.695 -1.431,0.483 -1.196,0.314 -0.922,0.189 -0.648,0.063 -0.34,0 0,0 m 0,-0.754 c -0.453,0 -0.869,0.08 -1.249,0.239 -0.38,0.159 -0.706,0.377 -0.976,0.658 -0.272,0.278 -0.484,0.609 -0.638,0.989 -0.154,0.38 -0.23,0.79 -0.23,1.232 0,0.441 0.076,0.851 0.23,1.232 0.154,0.38 0.366,0.71 0.638,0.989 0.27,0.279 0.596,0.499 0.976,0.658 0.38,0.159 0.796,0.239 1.249,0.239 0.453,0 0.869,-0.08 1.249,-0.239 C 1.628,5.084 1.955,4.864 2.226,4.585 2.496,4.306 2.709,3.976 2.863,3.596 3.016,3.215 3.093,2.805 3.093,2.364 3.093,1.922 3.016,1.512 2.863,1.132 2.709,0.752 2.496,0.421 2.226,0.143 1.955,-0.138 1.628,-0.356 1.249,-0.515 0.869,-0.674 0.453,-0.754 0,-0.754" /></g><g
           transform="translate(174.8093,16.137)"
           id="g186"><path
             id="path188"
             style="fill:#175092;fill-opacity:1;fill-rule:nonzero;stroke:none"
             d="m 0,0 v -3.638 c 0,-0.184 0.025,-0.375 0.075,-0.574 0.051,-0.199 0.134,-0.381 0.253,-0.549 0.116,-0.167 0.27,-0.304 0.46,-0.41 0.19,-0.106 0.424,-0.16 0.704,-0.16 0.279,0 0.514,0.054 0.704,0.16 0.19,0.106 0.344,0.243 0.462,0.41 0.116,0.168 0.2,0.35 0.251,0.549 0.05,0.199 0.075,0.39 0.075,0.574 V 0 H 3.79 V -3.763 C 3.79,-4.109 3.73,-4.424 3.613,-4.707 3.496,-4.988 3.333,-5.233 3.127,-5.44 2.919,-5.646 2.677,-5.805 2.398,-5.918 2.119,-6.029 1.816,-6.085 1.492,-6.085 c -0.324,0 -0.625,0.056 -0.905,0.167 -0.279,0.113 -0.523,0.272 -0.729,0.478 -0.207,0.207 -0.369,0.452 -0.486,0.733 -0.118,0.283 -0.176,0.598 -0.176,0.944 V 0 Z" /></g><g
           transform="translate(180.6516,13.5218)"
           id="g190"><path
             id="path192"
             style="fill:#175092;fill-opacity:1;fill-rule:nonzero;stroke:none"
             d="m 0,0 h 1.057 c 0.156,0 0.311,0.013 0.464,0.038 0.155,0.025 0.291,0.071 0.411,0.139 0.12,0.067 0.217,0.162 0.289,0.289 0.073,0.126 0.11,0.288 0.11,0.49 0,0.201 -0.037,0.365 -0.11,0.49 C 2.149,1.572 2.052,1.669 1.932,1.735 1.812,1.802 1.676,1.849 1.521,1.874 1.368,1.899 1.213,1.911 1.057,1.911 H 0 Z M -0.804,2.615 H 1.283 C 1.663,2.615 1.976,2.564 2.221,2.46 2.468,2.357 2.662,2.226 2.804,2.066 2.947,1.907 3.046,1.729 3.102,1.53 3.158,1.332 3.186,1.141 3.186,0.956 3.186,0.772 3.158,0.58 3.102,0.382 3.046,0.184 2.947,0.004 2.804,-0.155 2.662,-0.314 2.468,-0.445 2.221,-0.549 1.976,-0.652 1.663,-0.704 1.283,-0.704 H 0 v -2.615 h -0.804 z" /></g></g></g></g></svg>